<svg id="Capa_1" enable-background="new 0 0 512 512" height="512" viewBox="0 0 512 512" width="512" xmlns="http://www.w3.org/2000/svg"><g><g><path d="m256 0c-56.586 0-108.874 18.373-151.252 49.46l-42.098 374.32h-.005c46.937 54.044 116.154 88.22 193.355 88.22 141.385 0 256-114.615 256-256s-114.615-256-256-256z" fill="#510e3c"/></g><g><path d="m512 318.78v-125.27l-461-42.026-38.587 25.564c-8.056 24.868-12.413 51.401-12.413 78.952 0 16.259 1.522 32.162 4.422 47.58l478.578 60.42z" fill="#fff9eb"/></g><g><path d="m89 256c0-35.188 7.104-68.716 19.949-99.233l-57.949-5.283-38.587 25.564c-8.056 24.868-12.413 51.401-12.413 78.952 0 16.259 1.522 32.162 4.422 47.58l91.454 11.546c-4.489-18.981-6.876-38.774-6.876-59.126z" fill="#fcf1d4"/></g><g><path d="m512 82.276v111.234c-2.36.87-4.71 1.72-7.07 2.52-163.56 56.13-328.65-42.99-492.52-18.98 16.74-51.68 49.46-96.16 92.34-127.61 113.8 8.58 227.94 51.21 341.5 35.27 17.596-2.462 35.179-6.339 52.744-11.967 6.434-2.061 13.006 2.776 13.006 9.533z" fill="#fb8b24"/></g><g><path d="m512 318.78v110.986c0 8.759-5.712 16.462-14.063 19.104-30.784 9.738-61.629 14.124-92.498 15.001-114.1 3.25-228.67-41.32-342.79-40.09-29.14-33.55-49.69-74.75-58.23-120.2 166-28.45 333.3 74.15 499.04 18.22 2.851-.961 5.691-1.961 8.541-3.021z" fill="#2fad4f"/></g><g><g><path d="m230.335 202.361c-28.235-6.5-53.763 15.526-53.639 43.286.13 29.126 24.116 58.559 53.639 63.992 27.401 5.042 53.853-14.675 53.639-43.286-.221-29.556-25.291-57.466-53.639-63.992zm48.538 62.812c-8.816-2.522-17.614-5.113-26.391-7.763-5.471-.335-9.254-.575-13.432-.845-.049-.373-.12-.742-.212-1.108 4.077-.261 7.768-.502 13.105-.862 9.447-3.259 14.517-5.019 23.331-8.168.502 1.32.961 2.658 1.364 4.015-2.698.195-4.417 2.555-3.867 5.422s3.165 5.176 5.922 5.285c.118 1.36.174 2.7.18 4.024zm-12.563-26.124c1.565 2.64 4.676 3.911 7.072 2.941.614 1.292 1.18 2.607 1.701 3.94-9.609 1.084-15.136 1.647-25.435 2.675-4.771 1.835-8.069 3.099-11.713 4.492-.183-.351-.386-.692-.605-1.024 3.355-1.884 6.392-3.591 10.784-6.067 6.765-6.999 10.399-10.763 16.708-17.334.939 1.124 1.844 2.276 2.704 3.462-2.221 1.251-2.78 4.276-1.216 6.915zm-11.937-14.245c2.336 2.018 5.461 2.072 7.136.186 1.021 1.052 2.006 2.141 2.957 3.259-7.775 4.824-12.253 7.571-20.59 12.678-3.345 3.727-5.658 6.302-8.213 9.145-.288-.277-.589-.54-.903-.786 2.121-3.219 4.042-6.134 6.819-10.351 3.06-9.682 4.703-14.882 7.556-23.916 1.229.763 2.437 1.567 3.618 2.415-1.401 2.118-.716 5.351 1.62 7.37zm-15.597-9.551c2.762 1.101 5.442-.081 6.137-2.636 1.274.657 2.526 1.366 3.758 2.115-4.769 7.862-7.516 12.384-12.63 20.802-1.41 5.056-2.384 8.551-3.461 12.413-.348-.161-.703-.304-1.066-.425.566-4.066 1.078-7.746 1.818-13.069-.916-8.98-1.832-17.961-2.747-26.942 1.342.277 2.676.604 3.999.985-.392 2.678 1.429 5.656 4.192 6.757zm-16.882-3.377c2.765.002 4.585-2.248 4.192-5.084 1.339.149 2.673.361 3.999.621-.916 8.614-1.832 17.227-2.747 25.841.74 5.619 1.252 9.504 1.818 13.797-.363-.024-.718-.023-1.066-.001-1.077-4.293-2.051-8.179-3.461-13.799-4.211-8.616-8.423-17.232-12.638-25.846 1.228-.26 2.481-.471 3.765-.619.69 2.834 3.373 5.087 6.138 5.09zm-15.597 3.37c2.342-1.106 3.024-4.082 1.609-6.756 1.177-.383 2.387-.71 3.623-.987 2.521 8.978 5.042 17.956 7.562 26.935 2.777 5.324 4.698 9.007 6.819 13.076-.314.12-.615.263-.902.425-2.555-3.866-4.868-7.365-8.214-12.423-6.85-6.926-13.716-13.837-20.596-20.734.945-.76 1.927-1.477 2.952-2.142 1.673 2.544 4.806 3.712 7.147 2.606zm-11.937 9.629c1.561-2.039 1.008-5.27-1.202-7.365.854-.858 1.753-1.671 2.688-2.442 5.579 7.941 11.15 15.889 16.71 23.844 4.393 4.215 7.43 7.133 10.785 10.359-.22.244-.422.504-.605.781-3.644-2.851-6.943-5.428-11.714-9.147-8.45-4.189-16.923-8.337-25.419-12.432.521-1.135 1.088-2.24 1.705-3.308 2.392 1.848 5.491 1.749 7.052-.29zm-6.461 14.379c.549-2.659-1.166-5.662-3.859-6.852.403-1.198.863-2.363 1.369-3.5 7.797 5.663 15.57 11.362 23.318 17.091 5.338 2.46 9.029 4.168 13.106 6.06-.092.329-.163.67-.212 1.023-4.179-1.401-7.962-2.665-13.433-4.481-8.79-.823-17.59-1.583-26.392-2.268.008-1.344.068-2.67.185-3.974 2.755.895 5.368-.439 5.918-3.099zm-6.102 7.573c8.816 2.522 17.614 5.113 26.391 7.763 5.471.335 9.254.575 13.432.845.049.373.12.742.212 1.108-4.077.261-7.768.502-13.105.862-9.447 3.259-14.517 5.019-23.331 8.168-.502-1.32-.961-2.658-1.364-4.015 2.698-.195 4.418-2.555 3.868-5.422s-3.166-5.176-5.923-5.285c-.119-1.359-.174-2.7-.18-4.024zm12.563 26.124c-1.565-2.641-4.676-3.911-7.072-2.941-.614-1.292-1.18-2.607-1.701-3.94 9.609-1.084 15.136-1.646 25.435-2.675 4.771-1.835 8.069-3.099 11.713-4.491.183.351.386.692.605 1.024-3.355 1.884-6.392 3.591-10.784 6.067-6.765 6.999-10.399 10.763-16.708 17.334-.939-1.123-1.844-2.276-2.704-3.462 2.221-1.252 2.78-4.277 1.216-6.916zm11.937 14.246c-2.336-2.019-5.461-2.072-7.136-.185-1.021-1.052-2.006-2.141-2.958-3.259 7.775-4.823 12.253-7.571 20.59-12.678 3.345-3.727 5.658-6.302 8.213-9.145.288.277.589.54.903.786-2.121 3.219-4.042 6.134-6.819 10.351-3.06 9.682-4.703 14.882-7.556 23.916-1.229-.763-2.437-1.566-3.617-2.415 1.401-2.119.716-5.353-1.62-7.371zm15.597 9.55c-2.762-1.101-5.442.081-6.137 2.636-1.274-.657-2.527-1.366-3.758-2.116 4.769-7.862 7.516-12.384 12.63-20.802 1.41-5.056 2.384-8.551 3.461-12.413.348.161.703.304 1.066.425-.566 4.066-1.078 7.746-1.818 13.068.916 8.981 1.832 17.961 2.747 26.942-1.342-.277-2.676-.604-3.998-.985.391-2.676-1.43-5.654-4.193-6.755zm16.882 3.378c-2.765-.002-4.585 2.248-4.192 5.084-1.34-.149-2.673-.361-4-.621.916-8.614 1.832-17.227 2.747-25.841-.74-5.619-1.252-9.504-1.818-13.796.363.024.718.023 1.066.001 1.077 4.293 2.051 8.178 3.461 13.798 4.211 8.617 8.424 17.232 12.639 25.847-1.228.26-2.481.47-3.764.619-.691-2.836-3.374-5.089-6.139-5.091zm15.597-3.371c-2.342 1.106-3.024 4.082-1.608 6.756-1.177.383-2.387.71-3.624.987-2.521-8.978-5.042-17.957-7.562-26.935-2.778-5.324-4.698-9.007-6.82-13.076.314-.12.615-.263.902-.425 2.555 3.867 4.868 7.365 8.213 12.423 6.851 6.926 13.716 13.837 20.596 20.734-.945.759-1.927 1.477-2.951 2.141-1.672-2.543-4.805-3.711-7.146-2.605zm11.937-9.629c-1.561 2.039-1.008 5.27 1.202 7.364-.854.858-1.753 1.671-2.688 2.442-5.579-7.942-11.15-15.889-16.71-23.844-4.393-4.214-7.429-7.133-10.785-10.359.219-.244.422-.504.605-.781 3.644 2.85 6.943 5.428 11.714 9.147 8.45 4.19 16.923 8.337 25.419 12.432-.521 1.135-1.088 2.24-1.705 3.307-2.393-1.846-5.491-1.747-7.052.292zm6.461-14.378c-.549 2.659 1.166 5.661 3.859 6.852-.403 1.198-.864 2.364-1.369 3.5-7.797-5.663-15.57-11.362-23.318-17.091-5.338-2.46-9.029-4.168-13.106-6.06.092-.329.163-.67.212-1.023 4.179 1.401 7.962 2.665 13.433 4.481 8.79.823 17.59 1.583 26.392 2.268-.008 1.343-.068 2.669-.185 3.974-2.756-.895-5.369.438-5.918 3.099z" fill="#659bf2"/></g></g><g><path d="m92.646 299.186c-29.439-1.568-58.853-.64-88.226 4.394 8.54 45.45 29.09 86.65 58.23 120.2 31.959-.344 63.953 2.904 95.962 7.687-33.802-35.892-57.345-81.542-65.966-132.281z" fill="#2b8f49"/></g><g><path d="m181.188 59.28c-25.49-4.292-50.973-7.92-76.438-9.84-42.88 31.45-75.6 75.93-92.34 127.61 29.911-4.383 59.862-4.66 89.838-2.531 15.248-45.448 42.904-85.198 78.94-115.239z" fill="#f97306"/></g></g></svg>