<svg id="filled_outline" height="512" viewBox="0 0 512 512" width="512" xmlns="http://www.w3.org/2000/svg" data-name="filled outline"><path d="m312 320v43.15562a95.26659 95.26659 0 0 1 -16 52.84438h-88v-96z" fill="#f5c99d"/><path d="m216 88a52.84436 52.84436 0 0 0 8.87524 29.31281l7.12476 10.68719v8h48v-8l7.12476-10.68719a52.84436 52.84436 0 0 0 8.87524-29.31281z" fill="#d45d13"/><path d="m344.00005 290.30993-.00005-90.30993a72 72 0 0 0 -72-72h-32a72 72 0 0 0 -72 72v80a14.4721 14.4721 0 0 1 -8 12.94426 14.47212 14.47212 0 0 0 -8 12.94426v14.11148h208v-7.05574a24.01 24.01 0 0 0 -15.99995-22.63433z" fill="#f07f2f"/><path d="m248 128v.00006a23.99994 23.99994 0 0 0 23.99994 23.99994h.00006a40 40 0 0 1 40 40v96.94426h32v-88.94426a72 72 0 0 0 -72-72z" fill="#de6a1e"/><path d="m72 288h22.05332a81.94183 81.94183 0 0 1 57.948 24.00655l39.99868-.00467 16 15.99812v48h-48a119.99989 119.99989 0 0 1 -72-24h-16z" fill="#f5c99d"/><path d="m24 264h48v96h-48z" fill="#009ff5"/><path d="m440.00051 288h-14.05309a81.94057 81.94057 0 0 0 -57.94737 24.00655l-39.99825-.00469-15.9998 15.99814v48h47.99953a119.99778 119.99778 0 0 0 71.99917-24h7.99983z" fill="#f5c99d"/><path d="m440.001 264h55.999v96h-55.999z" fill="#009ff5"/><path d="m280 339.15562v-27.15578a16 16 0 0 1 16-16 16 16 0 0 1 16 16v27.15578z" fill="#f5c99d"/><path d="m200 416h112v72h-112z" fill="#009ff5"/><path d="m248 232h16a8.00049 8.00049 0 0 1 .00684 16.001l-32.00684-.001v16l16 .00049v15.99951h16v-15.999h.00684a24.00049 24.00049 0 0 0 -.00684-48.001h-16a8 8 0 0 1 0-16h32v-16h-16v-16h-16v16a24 24 0 0 0 0 48z"/><path d="m24 368h48a8.00008 8.00008 0 0 0 8-8h5.38184a128.848 128.848 0 0 0 74.61816 24h40v24a8.00008 8.00008 0 0 0 -8 8v72a8.00008 8.00008 0 0 0 8 8h112a8.00008 8.00008 0 0 0 8-8v-72a8.00008 8.00008 0 0 0 -8-8h-2.251a102.67286 102.67286 0 0 0 8.11988-24h42.13112a128.86469 128.86469 0 0 0 72.17871-22.32446 8.001 8.001 0 0 0 7.82129 6.32446h48a8.00008 8.00008 0 0 0 8-8v-96a8.00008 8.00008 0 0 0 -8-8h-48a8.00008 8.00008 0 0 0 -8 8v16h-6.05469a89.26219 89.26219 0 0 0 -59.40625 22.43848 32.14862 32.14862 0 0 0 -14.53906-18.13086v-84.30762a80.12934 80.12934 0 0 0 -58.94043-77.16687l.72168-1.08264a60.6481 60.6481 0 0 0 10.21875-33.75049 8.00008 8.00008 0 0 0 -8-8h-80a8.00008 8.00008 0 0 0 -8 8 60.65086 60.65086 0 0 0 10.21875 33.751l.72168 1.08221a80.12921 80.12921 0 0 0 -58.94043 77.16679v79.05566a6.43728 6.43728 0 0 1 -3.57812 5.78907 22.35436 22.35436 0 0 0 -10.70167 11.45947 89.27848 89.27848 0 0 0 -51.6665-16.3042h-14.05371v-16a8.00008 8.00008 0 0 0 -8-8h-48a8.00008 8.00008 0 0 0 -8 8v96a8.00008 8.00008 0 0 0 8 8zm424-96h32v80h-32zm-144 208h-96v-56h96zm-88-72v-72h55.97412a62.16434 62.16434 0 0 0 -15.97412 41.7832v9.37256h16v-9.37256a46.31947 46.31947 0 0 1 13.65625-32.9702 7.99917 7.99917 0 0 0 2.34375-5.65724v-27.15576a8 8 0 0 1 16 0v51.15576a86.95356 86.95356 0 0 1 -12.417 44.84424zm209.94531-112h6.05469v48h-.001a8.00055 8.00055 0 0 0 -4.7998 1.6001 112.69952 112.69952 0 0 1 -67.1992 22.3999h-40.12622c.075-1.6106.12622-3.22437.12622-4.84424l48-11.15576v-16h-41.39258c-3.64355-.00049-6.60742-3.58923-6.60742-7.99976v-.00048a8.71448 8.71448 0 0 1 2.1875-5.91968 6.078 6.078 0 0 1 4.42285-2.08008h41.38965v-.00342a7.95726 7.95726 0 0 0 5.65527-2.334 73.45859 73.45859 0 0 1 52.29004-21.66258zm-194.41406-183.12451a44.70579 44.70579 0 0 1 -6.81641-16.87549h62.57032a44.70038 44.70038 0 0 1 -6.81641 16.875l-4.812 7.21777c-1.2129-.05487-2.43043-.09277-3.65675-.09277h-32c-1.22632 0-2.44385.0379-3.657.09277zm-67.95313 186.27978a22.34924 22.34924 0 0 0 12.42188-20.09961v-79.05566a64.07239 64.07239 0 0 1 64-64h32a64.07239 64.07239 0 0 1 64 64v80.00244h-16v16h16a15.99629 15.99629 0 0 1 13.8335 7.99756h-23.2251a21.49 21.49 0 0 0 -7.54907 1.36353 23.99722 23.99722 0 0 0 -47.05933 6.63647v8h-65.36182a24.03916 24.03916 0 0 0 -22.63818-16h-.00488l-23.926.00488a6.43045 6.43045 0 0 1 3.509-4.84961zm-69.52441-3.15527a73.45859 73.45859 0 0 1 52.29 21.6626 7.99952 7.99952 0 0 0 5.65723 2.34375h.00195l31.99516-.00635a8 8 0 0 1 .00488 16h-40.00293v16l56 .00061v15.99939h-40a112.70022 112.70022 0 0 1 -67.2002-22.3999 7.9984 7.9984 0 0 0 -4.7998-1.6001h-8v-48zm-62.05371-24h32v80h-32z"/><path d="m120 144h24v16h-24z"/><path d="m368 144h24v16h-24z"/><path d="m331.682 56.319h24v16h-24z" transform="matrix(.707 -.707 .707 .707 55.182 261.858)"/><path d="m248 16h16v24h-16z"/><path d="m160.318 52.319h16v24h-16z" transform="matrix(.707 -.707 .707 .707 3.816 137.851)"/></svg>